General                          : ChattChitto RG - Movies
==========
Complete name                    : P.S. I Love You 2007 BDRip.mp4
Format                           : MPEG-4
Format profile                   : Base Media
Codec ID                         : isom
File size                        : 2.33 GiB
Duration                         : 2h 6mn
Overall bit rate                 : 2 651 Kbps
Encoded date                     : UTC 2010-04-06 02:41:14

Video
==========
ID                               : 1
Format                           : AVC
Format/Info                      : Advanced Video Codec
Format profile                   : High@L3.1
Format settings, CABAC           : Yes
Format settings, ReFrames        : 3 frames
Codec ID                         : avc1
Codec ID/Info                    : Advanced Video Coding
Duration                         : 2h 6mn
Bit rate mode                    : Variable
Bit rate                         : 2 300 Kbps
Maximum bit rate                 : 15.7 Mbps
Width                            : 1 280 pixels
Height                           : 720 pixels
Display aspect ratio             : 16:9
Frame rate mode                  : Constant
Frame rate                       : 23.976 fps
Resolution                       : 8 bits
Colorimetry                      : 4:2:0
Scan type                        : Progressive
Bits/(Pixel*Frame)               : 0.104
Stream size                      : 2.02 GiB (87%)
Writing library                  : x264 core 76 r1271 496d79d
Encoded date                     : UTC 2010-04-06 01:44:45

Audio
==========
ID                               : 2
Format                           : AAC
Format/Info                      : Advanced Audio Codec
Format version                   : Version 4
Format profile                   : LC
Format settings, SBR             : No
Codec ID                         : 40
Duration                         : 2h 6mn
Bit rate mode                    : Variable
Bit rate                         : 352.8 Kbps
Maximum bit rate                 : 438 Kbps
Channel(s)                       : 6 channels
Channel positions                : Front: L C R, Side: L R, LFE
Sampling rate                    : 48.0 KHz
Stream size                      : 314 MiB (13%)
Encoded date                     : UTC 2010-04-06 02:42:29

Subtitles                        : English | Spanish | French




----------------------------------------------------
IMDB Link: http://www.imdb.com/title/tt0431308/
----------------------------------------------------


Screen Shots:
============== 
http://bayimg.com/BALDPaAcM 
http://bayimg.com/cALDBAacm 
http://bayimg.com/CaLDcaACm 
http://bayimg.com/cAldDAAcM 
http://bayimg.com/CaLdEaacm 
http://bayimg.com/BALDOaAcM


Plot:
======
Holly Kennedy is beautiful, smart and married to the love of her life—a passionate, funny and impetuous Irishman named Gerry. So when Gerry's life is taken by an illness, it takes the life out of Holly. The only one who can help her is the person who is no longer there. Nobody knows Holly better than Gerry. So it's a good thing he planned ahead. Before he died, Gerry wrote Holly a series of letters that will guide her, not only through her grief but in rediscovering herself. The first message arrives on Holly's 30th birthday in the form of a cake and, to her utter shock, a tape recording from Gerry, who proceeds to order her to get out and celebrate herself. In the weeks and months that follow, more letters from Gerry are delivered in surprising ways, each sending her on a new adventure and each signing off in the same way: P.S. I Love You. 




Release Info:
==============
original name .... : P.S. I Love You 2007 BDRip.mp4                                
ripper.............: Recalled2Life (R2L)
encoder............: Recalled2Life (R2L)
video codec........: H264/.MP4                   
video bitrate......: 2300 Kbps                           
audio codec........: AAC-LC	                                        
aspect ratio.......: 16:9 | 1.78:1                              
resolution.........: 1280 x 720                             
genre..............: Drama | Romance         
runtime............: 2h 6mn
language...........: English                              
subtitles..........: English | Spanish | French
sample.............: Yes [8.92 MB]
2ch Audio..........: 2ch Audio for XBox Viewers



Source:
========
P.S. I Love You Blu-Ray 1080p VC-1/Dolby TrueHD 5.1 [20.1 GB]


Notes:
=======
ChattChitto RG Encourages Burning this Film with ConvertXtoDVD.
Enhanced and Filtered for your viewing pleasure ;)